# xmcd
#
# Track frame offsets:
#	150
#	17319
#	36413
#	55368
#	72636
#	98679
#	114156
#	139348
#	158822
#	179943
#	197826
#	218679
#	237286
#	258118
#	272041
#
# Disc length: 3815 seconds
#
# Revision: 1
# Processed by: cddbd v1.5.2PL0 Copyright (c) Steve Scherf et al.
# Submitted via: audiograbber 1.83.01
#
DISCID=da0ee50f
DTITLE=John Phillips - Pussycat
DYEAR=1976
DGENRE=Rock
TTITLE0=Wilderness of Love
TTITLE1=2001
TTITLE2=Oh Virginia
TTITLE3=Mr. Blue
TTITLE4=She's Just 14
TTITLE5=Zulu Warrior
TTITLE6=Pussycat
TTITLE7=Sunset Boulevard
TTITLE8=Very Dread
TTITLE9=Susan, Susan
TTITLE10=Time Machine (Cutting Ahead)
TTITLE11=Feather Your Nest
TTITLE12=Don't Turn Back Now (World's Greatest Dancer)
TTITLE13=Liar, Liar
TTITLE14=Hello Mary Lou (instrumental)
EXTD=
EXTT0=
EXTT1=
EXTT2=
EXTT3=
EXTT4=
EXTT5=
EXTT6=
EXTT7=
EXTT8=
EXTT9=
EXTT10=
EXTT11=
EXTT12=
EXTT13=
EXTT14=
PLAYORDER=
